<svg width="137" height="27" viewBox="0 0 137 27" fill="none" xmlns="http://www.w3.org/2000/svg">
<g clip-path="url(#clip0_1_420)">
<path fill-rule="evenodd" clip-rule="evenodd" d="M59.4734 7.09972C61.2387 7.09972 62.9666 7.4205 64.0076 7.71055L64.0967 7.73568L64.1806 7.30701H71.3775V9.69165L69.7845 9.864L72.0603 17.9373H72.2593L74.7911 7.68051H79.0865L81.5328 17.9373H81.7036L83.837 9.864L82.2156 9.69165L82.5854 7.30701H88.5595L88.5586 8.91513C88.4299 9.17292 88.3097 9.43621 88.1999 9.70461L87.5346 9.83525C87.1518 9.89053 86.9793 10.0255 86.866 10.3678L86.8523 10.4099L83.3534 22.2756H78.8589L76.6401 12.6508H76.4694L74.2221 22.2756H69.1018L65.5175 10.3811C65.4085 10.0508 65.2733 9.98426 64.9618 9.9034L64.9202 9.89276L64.6693 9.83843L64.6855 9.9034V12.0816L61.6546 11.8813L61.3713 10.3923C61.3433 10.1633 61.2863 10.0489 61.0884 9.99155L60.9981 9.9652C60.6151 9.86023 59.9815 9.76246 59.2756 9.76246C57.8592 9.76246 57.0659 10.3065 57.0659 11.2227C57.0659 12.2238 58.1994 12.5587 59.6048 12.8842L60.5537 13.1023L60.6849 13.1338C62.8321 13.6557 65.1105 14.5375 65.1105 17.7217C65.1105 21.2149 62.3065 22.6462 58.7089 22.6462C56.1995 22.6462 53.7439 21.995 53.1451 21.6437L53.1004 21.6156V17.4642L56.1312 17.6932L56.4149 19.3252L56.4237 19.3949C56.4552 19.604 56.5241 19.7028 56.7546 19.7544L56.8211 19.7759L56.8967 19.7982L56.9814 19.8213L57.0788 19.8455C57.4875 19.9428 58.1227 20.0408 58.9358 20.0408C60.4365 20.0408 61.2863 19.6115 61.2863 18.5521C61.2863 17.4256 60.1901 17.0749 58.7797 16.8183L58.1346 16.7009L57.8598 16.6483C55.6506 16.2138 53.2141 15.4273 53.2141 12.1103C53.2141 8.56019 56.2162 7.09972 59.4734 7.09972ZM33.3512 7.09972C37.5903 7.09972 39.317 8.25072 39.3511 12.1627L39.3516 12.2821L39.3517 19.281L39.3526 19.3579L39.3551 19.4262L39.3597 19.4888C39.3815 19.7035 39.4591 19.7585 39.7262 19.8007L39.8024 19.8117L40.9484 20.0059V17.4642L43.9628 17.6932L44.2449 19.3252C44.2723 19.5827 44.3293 19.6973 44.5828 19.7544L44.6489 19.7759L44.7241 19.7982L44.8083 19.8213L44.9053 19.8455C45.3116 19.9428 45.9434 20.0408 46.752 20.0408C48.2446 20.0408 49.0897 19.6115 49.0897 18.5521C49.0897 17.4632 48.071 17.0992 46.736 16.8443L45.9464 16.6993L45.6735 16.6466L45.4754 16.6064L45.2826 16.5654C43.2015 16.1097 41.0616 15.2272 41.0616 12.1103C41.0616 8.56019 44.0473 7.09972 47.2867 7.09972C49.4373 7.09972 51.5354 7.58136 52.3861 7.89769L52.4703 7.93008V12.0816L49.456 11.8813L49.1742 10.3923C49.1465 10.1633 49.0897 10.0489 48.893 9.99155C48.5267 9.87714 47.8506 9.76246 47.09 9.76246C45.6813 9.76246 44.8924 10.3065 44.8924 11.2227C44.8924 12.2412 46.0589 12.5698 47.49 12.901L48.1601 13.0551C50.3855 13.5703 52.8931 14.3721 52.8931 17.7217C52.8931 21.2146 50.1044 22.6462 46.5264 22.6462C44.2473 22.6462 42.0178 22.1039 41.194 21.7419L41.1546 21.7242V22.3025H35.9709L35.6889 20.7565L35.5483 20.7279C34.4781 21.7874 33.0694 22.6462 30.8157 22.6462C27.2667 22.6462 26.7028 20.1843 26.7028 18.4089C26.7028 15.5745 28.4149 14.2554 31.8658 14.007L35.2104 13.7711L35.2103 12.1412L35.2088 11.9789L35.2067 11.8718L35.201 11.7153L35.1954 11.6137C35.1305 10.593 34.804 9.93447 33.3229 9.93447L33.1502 9.93576L33.0391 9.93816C31.8904 9.97104 31.2852 10.2505 31.2669 11.7801L31.2664 11.8528L27.2941 11.5087C27.2941 7.68263 30.6906 7.11094 33.2732 7.09989L33.3512 7.09972ZM135.421 0.673828L135.422 19.2261L135.424 19.2924C135.437 19.5415 135.503 19.6015 135.789 19.6469L137.2 19.8566V22.0984H132.029L131.751 20.5093L131.556 20.4809C130.389 21.6444 129.026 22.4389 126.997 22.4389C123.715 22.4389 121.602 20.3107 121.602 14.8907C121.602 9.18691 124.41 7.03027 127.497 7.03027C129.071 7.03027 130.301 7.5711 131.341 8.336L131.417 8.39236V4.07906C131.417 3.81023 131.317 3.6178 131.094 3.52591L131.056 3.51152L129.526 2.97236L129.832 0.673828H135.421ZM119.247 6.89244C119.884 6.89244 121.134 7.00041 121.682 7.13807L121.736 7.15243V12.4099L118.304 12.2944L118.018 10.7634C117.961 10.5034 117.875 10.4456 117.646 10.4456C116.946 10.4456 116.12 11.0085 115.667 11.3879L115.587 11.4566V19.1616C115.589 19.5669 115.629 19.6561 116.006 19.6867L118.876 19.9207V22.2316H109.523V19.8917L110.81 19.7184C111.198 19.6626 111.264 19.5796 111.268 19.1816V10.6767C111.268 10.3733 111.189 10.1753 110.934 10.0826L110.896 10.0701L109.367 9.52633L109.355 9.49784L109.666 7.18131H114.7L115.043 9.49234H115.215C116.159 8.01904 117.418 6.89244 119.247 6.89244ZM20.3714 1.50298C25.6285 1.50298 27.2193 4.30901 27.2193 7.60138C27.2193 12.5332 24.2956 14.5468 19.5773 14.5866L19.4338 14.5872H17.3595L17.36 19.2494L17.3616 19.3219L17.3652 19.3887C17.3832 19.6281 17.4565 19.686 17.7391 19.73L17.8145 19.7408L21.8775 19.9699V22.2316H10.7393V22.225L10.7269 22.2316H0.84241V19.9798L3.26386 19.7798C3.63206 19.7533 3.7055 19.6524 3.71365 19.2915L3.71447 19.2101V9.36591C3.71447 8.95758 3.41054 9.02495 1.29364 9.7495L0.512512 7.41181L5.35071 4.61228H7.96675L7.96685 19.2518L7.9678 19.3288L7.97023 19.3979C7.98467 19.6804 8.05558 19.7508 8.37919 19.777L8.41766 19.7798L10.7269 19.9798L10.7393 19.9859V19.9699L12.5294 19.7693C12.9003 19.7161 12.9748 19.6378 12.9832 19.2783L12.984 19.1968V4.56658C12.984 4.15159 12.9305 4.03033 12.568 3.99694L12.5294 3.99379L10.7393 3.79355V1.50298H20.3714ZM35.1308 15.9975L33.2155 16.1394C31.5544 16.2528 30.9629 16.6782 30.9629 17.8134C30.9629 18.9488 31.6389 19.3743 32.5682 19.3743C33.4968 19.3743 34.4254 18.8671 35.0711 18.3968L35.1308 18.3527V15.9975ZM128.727 10.3244C126.687 10.3244 125.874 12.2538 125.857 14.7572V14.8391C125.857 17.6106 126.637 19.1537 128.392 19.1537C129.312 19.1537 130.312 18.6144 131.058 17.9811L131.123 17.925V11.1816C130.426 10.6959 129.535 10.3244 128.727 10.3244ZM18.9627 4.64682H17.3008V11.4853L18.7649 11.4851L18.8757 11.4841L19.0391 11.4803L19.145 11.4765L19.3007 11.4683C20.9782 11.3647 22.6235 10.7218 22.6235 7.85316C22.6235 5.12885 20.9616 4.64682 18.9627 4.64682Z" fill="#6B6B6B"/>
<path fill-rule="evenodd" clip-rule="evenodd" d="M98.7445 2.18945C105.371 2.18945 110.742 7.61477 110.742 14.3071C110.742 20.9997 105.371 26.4247 98.7445 26.4247C92.1182 26.4247 86.7467 20.9997 86.7467 14.3071C86.7467 7.61477 92.1182 2.18945 98.7445 2.18945ZM98.7445 4.65085C93.464 4.65085 89.1835 8.97415 89.1835 14.3071C89.1835 19.6403 93.464 23.9634 98.7445 23.9634C104.025 23.9634 108.305 19.6403 108.305 14.3071C108.305 8.97415 104.025 4.65085 98.7445 4.65085ZM98.7445 7.11225C102.678 7.11225 105.868 10.3336 105.868 14.3071C105.868 18.2809 102.678 21.5019 98.7445 21.5019C94.8099 21.5019 91.6203 18.2809 91.6203 14.3071C91.6203 10.3336 94.8099 7.11225 98.7445 7.11225ZM99.8938 9.19497H97.5952C97.3085 9.19497 97.0742 9.4469 97.0579 9.76449L97.057 9.80011V12.2263C97.0604 12.3163 97.0905 12.4074 97.1446 12.4797L97.166 12.5058L97.5016 12.884C97.6347 13.0332 97.6415 13.2703 97.5231 13.4288L97.5016 13.4545L97.166 13.8326C97.1059 13.8999 97.0699 13.9884 97.0622 14.0824L97.0604 14.1179L97.057 18.8142C97.057 19.1364 97.281 19.3998 97.5634 19.4182L97.5952 19.4193H99.8938C100.18 19.4193 100.414 19.1674 100.43 18.8497L100.431 18.8142V16.5717C100.431 16.4766 100.402 16.385 100.348 16.3126L100.326 16.2864L99.9899 15.9083C99.8577 15.759 99.8509 15.5219 99.9693 15.3634L99.9899 15.3377L100.326 14.9595C100.386 14.8923 100.423 14.8038 100.43 14.7098L100.431 14.6743V9.80011C100.431 9.46587 100.191 9.19497 99.8938 9.19497Z" fill="#6B6B6B"/>
</g>
<defs>
<clipPath id="clip0_1_420">
<rect width="136.475" height="25.75" fill="white" transform="translate(0.512512 0.673828)"/>
</clipPath>
</defs>
</svg>
