<svg width="121" height="32" viewBox="0 0 121 32" fill="none" xmlns="http://www.w3.org/2000/svg">
  <g clip-path="url(#clip0_1_693)">
    <path d="M9.08701 23.6705V13.5119H11.2878C15.3608 13.5119 18.2513 14.9533 18.2513 19.7688C18.2513 23.8464 16.5105 25.7796 12.6345 25.7796C10.7622 25.7796 9.08701 25.7094 9.08701 23.6705ZM9.08701 12.5306V4.06674C9.08701 2.78235 9.30049 2.71649 10.9729 2.71649C15.6697 2.71649 17.7691 3.73741 17.7691 7.26127C17.7691 10.4558 15.99 12.4647 12.3606 12.5306H9.08701ZM3.51318 5.52052V22.4849C3.51318 25.4993 3.20911 25.7796 0.404953 25.8147V26.7611H12.6013C17.534 26.7611 23.0747 25.8848 23.0747 19.9964C23.0747 15.7202 19.1557 13.8975 15.7095 13.1966V13.1265C18.7164 12.5657 21.6557 10.743 21.6557 7.20295C21.6557 2.0155 15.3042 1.24438 11.1824 1.24438H0.404953V2.19074C3.20911 2.2258 3.51318 2.5062 3.51318 5.52052ZM27.9847 14.0648C27.9847 13.6534 27.5942 13.242 25.7484 13.1392V12.3163C27.8427 11.9392 29.9015 11.2878 31.9603 10.5678V24.1791C31.9603 25.2419 32.1732 25.4475 33.9482 25.4475V26.2704H25.8549V25.4475C27.7717 25.4475 27.9847 25.2419 27.9847 24.1791V14.0648ZM32.4823 3.83195C32.4823 5.31057 31.2291 6.41954 29.9389 6.41954C28.6488 6.41954 27.3955 5.31057 27.3955 3.83195C27.3955 2.35335 28.6488 1.24438 29.9389 1.24438C31.2291 1.24438 32.4823 2.35335 32.4823 3.83195ZM45.4895 12.4369C45.5622 12.5305 45.6272 12.6376 45.6833 12.76L51.7966 26.6797H52.7293L57.772 14.3371L62.9184 26.6797H63.9546L68.7209 14.8514C69.2736 13.4457 69.8607 12.0743 71.4841 11.8V10.9772H66.2686V11.8L66.3463 11.8129C67.3509 11.9786 68.2374 12.1249 68.2374 12.76C68.2374 13.0343 68.0302 13.5486 67.7537 14.2342L64.9908 21.777L61.7785 13.8571C61.7296 13.7236 61.6546 13.547 61.5784 13.367C61.4391 13.0388 61.295 12.6993 61.295 12.5886C61.295 12.1429 62.1585 11.9029 63.4709 11.8V10.9772H54.4217V11.8C56.4249 11.9714 57.0467 12.6229 57.0467 13.2057C57.0467 13.5534 56.8493 14.0236 56.6004 14.6163C56.5549 14.7248 56.5077 14.8375 56.4595 14.9542L53.7655 21.6399L50.5188 14.0972C50.4451 13.9091 50.3683 13.7339 50.297 13.5714C50.1343 13.2003 50.0007 12.8956 50.0007 12.6572C50.0007 12.2114 50.8987 11.8 52.3494 11.8V10.9772H43.9909V10.9842L40.7843 10.9896V5.17005L35.3079 11.3684V12.1949H37.1115V23.5586C37.1115 25.4182 38.6527 26.7611 40.9811 26.7611C42.4241 26.7611 44.6539 25.7624 45.4739 24.5571V23.3175C44.7195 24.0406 43.8013 24.9015 42.7191 24.9015C40.9484 24.9015 40.7843 23.6963 40.7843 22.8698V12.1949L44.5612 12.1874C44.5612 12.1874 45.3276 12.2506 45.4895 12.4369ZM72.9303 13.1392C74.776 13.242 75.1664 13.6534 75.1664 14.0648V24.1791C75.1664 25.2419 74.9535 25.4475 73.0367 25.4475V26.2704H81.1299V25.4475C79.3551 25.4475 79.142 25.2419 79.142 24.1791V10.5678C77.0832 11.2878 75.0244 11.9392 72.9303 12.3163V13.1392ZM77.1582 6.41954C78.4484 6.41954 79.7017 5.31057 79.7017 3.83195C79.7017 2.35335 78.4484 1.24438 77.1582 1.24438C75.8681 1.24438 74.6148 2.35335 74.6148 3.83195C74.6148 5.31057 75.8681 6.41954 77.1582 6.41954ZM95.4111 11.8372C93.4327 11.1167 91.6311 10.5678 89.8295 10.5678C87.0741 10.5678 83.5415 11.9744 83.5415 15.1308C83.5415 17.6009 85.8024 18.8703 88.0632 19.8995C90.324 20.9631 92.5849 21.8209 92.5849 23.4676C92.5849 24.8398 91.7371 25.9377 90.2535 25.9377C86.8268 25.9377 85.1312 23.1588 84.4954 20.2426L83.6475 20.3799L83.9654 25.5603C85.3784 26.1778 87.9218 26.7611 89.4409 26.7611C92.8322 26.7611 96.0822 25.6975 96.0822 21.8893C96.0822 19.2477 93.7154 18.0811 91.5252 17.0176C88.8404 15.714 86.8268 14.822 86.8268 13.6555C86.8268 12.3518 88.0279 11.3912 89.2644 11.3912C92.1611 11.3912 93.6801 14.0672 94.5633 16.4344L95.4111 16.3658V11.8372ZM112.868 20.7916L113.359 21.3061C111.956 24.6682 109.571 26.7611 105.677 26.7611C100.66 26.7611 97.9243 23.6734 97.9243 18.9388C97.9243 14.2387 101.362 10.5678 106.168 10.5678C109.956 10.5678 113.289 13.3467 113.289 17.1892H101.853C101.678 20.4828 103.783 23.6734 107.431 23.6734C109.851 23.6734 111.43 22.6441 112.868 20.7916ZM101.87 16.4562H108.252C108.9 16.4562 109.105 16.3573 109.105 15.6653C109.105 13.6219 107.535 12.0399 105.692 12.0399C102.826 12.0399 102.006 14.4457 101.87 16.4562Z" fill="white"/>
    <path d="M115.361 12.8849C116.894 12.8849 118.124 11.6212 118.124 10.0536C118.124 8.4859 116.894 7.22217 115.361 7.22217C113.834 7.22217 112.598 8.4859 112.598 10.0536C112.598 11.6212 113.834 12.8849 115.361 12.8849ZM115.361 12.1598C114.214 12.1598 113.291 11.2213 113.291 10.0536C113.291 8.88047 114.214 7.94734 115.361 7.94734C116.513 7.94734 117.431 8.88047 117.431 10.0536C117.431 11.2213 116.513 12.1598 115.361 12.1598ZM114.923 11.312V10.4321H115.314L115.893 11.312H116.67L116.008 10.3362C116.347 10.2349 116.545 9.94158 116.545 9.54699C116.545 9.05111 116.164 8.71517 115.606 8.71517H114.271V11.312H114.923ZM114.923 9.26973H115.45C115.71 9.26973 115.846 9.3817 115.846 9.59499C115.846 9.81361 115.71 9.91493 115.439 9.91493H114.923V9.26973Z" fill="white"/>
  </g>
  <defs>
    <clipPath id="clip0_1_693">
      <rect width="119.971" height="31.2969" fill="white" transform="translate(0.404953 0.312256)"/>
    </clipPath>
  </defs>
</svg>