<svg width="68" height="31" viewBox="0 0 68 31" fill="none" xmlns="http://www.w3.org/2000/svg">
<g clip-path="url(#clip0_1_702)">
<path fill-rule="evenodd" clip-rule="evenodd" d="M120.595 23.2674C115.581 31.7692 107.639 29.3023 105.254 27.3708C104.239 28.0595 102.459 29.5691 100.085 29.3948C95.0307 29.0238 93.2206 21.8004 93.2206 21.8004C93.2569 21.8293 91.7149 22.3325 90.8815 22.3235C90.8708 24.4418 89.0397 29.502 84.0979 29.4373C78.5525 29.365 77.4251 21.1033 77.4251 21.1033C77.4251 21.1033 76.8733 21.8695 74.775 22.6328C74.8806 21.0054 74.8034 29.1895 68.157 29.3099C62.9026 29.4051 61.4842 20.9759 61.4842 20.9759C61.4842 20.9759 60.5727 21.9228 58.8061 22.2512C58.9184 20.5972 58.7359 29.3377 52.0887 29.3099C47.5966 29.2912 46.0615 24.1175 46.1809 23.3994C46.3332 22.4842 44.6627 29.4385 40.2993 29.3302C38.4987 29.2773 37.1562 27.9736 36.3139 26.2355C35.1862 27.5258 33.549 29.3302 31.7124 29.3302C28.4155 29.3302 26.9621 26.5728 27.2083 18.697C27.2292 17.7629 27.1618 17.3954 26.2332 17.2557C25.6759 17.1627 25.1051 16.9867 24.5011 16.8938C24.3076 17.5398 22.6658 29.1201 17.0203 29.3399C15.1263 29.4136 14.0907 27.7729 13.2402 26.5552C11.9365 28.2799 10.2155 29.3948 7.76378 29.3948C3.6108 29.3948 0.78125 26.0375 0.78125 21.8961C0.78125 17.7545 3.6108 14.3975 7.76378 14.3975C8.49807 14.3975 8.7042 14.5028 9.37502 14.6985C7.99546 2.13798 11.2534 0.174945 14.1034 0.174945C16.8396 0.174945 21.5141 6.52556 14.9367 22.6341C16.397 27.4388 19.5451 27.1671 21.0579 17.2762C21.3658 15.2657 20.5426 12.5526 21.8231 12.174C24.1639 11.482 24.4122 13.5582 25.5098 13.9042C26.6703 14.2698 27.3477 14.2341 28.4618 14.4668C30.3655 14.8385 31.1084 15.8612 30.8765 18.139C30.5979 21.021 30.1107 25.2158 31.5963 25.7271C32.6676 26.0984 34.6236 23.8767 34.9669 22.6611C35.31 21.4454 35.3817 21.0294 35.4121 20.1378C35.4586 18.2321 35.5168 16.8352 35.8418 15.394C35.9809 14.8364 36.1394 14.4671 36.7704 14.4418C37.2895 14.4286 38.2389 14.2723 38.6569 14.5976C39.2139 15.0161 39.1443 15.4408 39.0804 16.5586C38.4325 32.4955 43.4188 24.5397 44.9056 18.1694C44.3761 10.9662 44.7396 0.30685 49.2535 0.128073C51.6011 0.0350997 52.6389 1.91577 52.7531 3.31952C53.076 7.28422 51.2673 13.8517 48.8886 18.2683C47.5291 27.2801 54.8326 29.062 56.0005 21.8688C54.0897 20.9602 52.0246 17.2829 53.705 15.4908C54.648 14.485 58.5731 15.9299 58.6374 19.0811C60.5627 18.5662 60.8198 17.4791 60.8465 17.6593C60.3172 10.456 60.8081 0.306943 65.3223 0.128165C67.6696 0.0351918 68.7072 1.91587 68.8214 3.31961C69.1443 7.2843 67.3356 13.8518 64.9572 18.2684C63.5976 27.2801 70.9012 29.0621 72.0688 21.8689C70.6541 21.5959 67.6677 17.6845 69.3908 15.4909C70.3116 14.3186 74.2224 16.7564 74.6602 19.1855C76.5098 18.6621 76.761 17.6095 76.7875 17.7867C76.2581 10.5837 76.749 0.434601 81.2632 0.255824C83.6105 0.16285 84.6481 2.04352 84.7623 3.44727C85.0852 7.41196 83.2765 13.9796 80.8978 18.3962C79.5385 27.408 86.8419 29.1895 88.0099 21.9963C86.0657 21.6727 83.3027 17.5428 85.5265 15.43C86.415 14.5858 89.8099 16.7771 90.6046 19.2771C91.7087 19.2346 92.396 18.8538 92.5434 18.8154C90.7806 10.3592 92.0929 0.212984 96.9489 0.128289C99.5736 0.0825566 102.14 1.54724 101.013 9.59219C99.9382 17.268 96.0737 20.4892 96.0827 20.5385C96.3076 21.4581 98.2906 29.1539 103.284 25.0933C103.026 24.508 102.767 23.91 102.622 23.1856C101.795 18.9659 103.42 14.1996 107.839 13.4293C110.371 12.988 112.755 14.2206 113.133 16.9993C113.753 21.5462 109.647 24.8391 108.086 25.5534C107.387 25.1561 114.425 29.67 118.602 20.6241C118.844 20.1076 119.136 20.1513 119.514 20.4175C119.781 20.6056 121.303 22.0472 120.595 23.2674ZM10.7847 20.7788C10.5722 20.1434 10.136 18.7434 9.98179 18.1368C9.13238 17.3981 8.5261 17.2781 7.4358 17.2781C5.01283 17.2781 3.58671 19.5183 3.58671 21.934C3.58671 24.3494 5.14036 26.59 7.56335 26.59C9.66314 26.59 11.2613 25.1623 11.7489 23.1412C11.4076 22.3533 11.069 21.6292 10.7847 20.7788ZM14.0441 3.4998C12.3416 3.4998 11.764 7.56117 11.8761 11.0259C11.9752 14.0891 12.8312 16.786 13.2752 17.9943C13.388 18.1458 13.367 18.0472 13.4677 18.2078C16.4238 11.7309 15.1977 3.4998 14.0441 3.4998ZM49.4967 3.62738C47.2962 3.37502 47.3105 12.5414 47.5836 14.5976C48.7265 12.7693 50.7117 4.11963 49.4967 3.62738ZM65.565 3.62738C63.3646 3.37502 63.3788 12.5414 63.6521 14.5976C64.7948 12.7693 66.7801 4.11963 65.565 3.62738ZM81.506 3.75491C79.3055 3.50255 79.3197 12.669 79.593 14.7253C80.7357 12.8969 82.721 4.24713 81.506 3.75491ZM97.1918 3.09079C93.7634 3.77925 94.5617 15.21 95.0825 17.2148C99.1208 11.6682 99.204 2.88245 97.1918 3.09079ZM110.04 17.3754C109.866 16.6465 108.995 16.257 108.393 16.353C106.672 16.5881 105.002 18.732 105.648 21.996C105.792 22.723 106.152 23.3921 106.146 23.3699C109.999 20.7853 110.326 18.7486 110.04 17.3754ZM37.4452 11.9188C36.9532 11.9189 36.4722 11.7731 36.0631 11.4998C35.654 11.2266 35.3351 10.8381 35.1467 10.3836C34.9584 9.92906 34.9091 9.42888 35.0051 8.94633C35.1009 8.46378 35.3379 8.02052 35.6858 7.6726C36.0336 7.32468 36.4768 7.08774 36.9594 6.99174C37.4419 6.89574 37.9421 6.94499 38.3967 7.13328C38.8512 7.32155 39.2397 7.6404 39.513 8.04949C39.7863 8.45858 39.9322 8.93955 39.9322 9.43153C39.9322 9.75815 39.8679 10.0816 39.7429 10.3833C39.618 10.6851 39.4348 10.9593 39.2038 11.1903C38.9728 11.4212 38.6987 11.6044 38.397 11.7295C38.0952 11.8545 37.7719 11.9188 37.4452 11.9188Z" fill="white"/>
</g>
<defs>
<clipPath id="clip0_1_702">
<rect width="120" height="30" fill="white" transform="translate(0.78125 0.124756)"/>
</clipPath>
</defs>
</svg>
