<svg width="128" height="49" viewBox="0 0 128 49" fill="none" xmlns="http://www.w3.org/2000/svg">
<g clip-path="url(#clip0_1_427)">
<path d="M0.254761 35.2812H6.18141V36.5998H1.679V39.7025H5.82785V40.9552H1.679V44.9308H0.254761V35.2812Z" fill="#6B6B6B"/>
<path d="M10.3792 37.418C12.4606 37.418 13.8649 38.9763 13.8649 41.2778C13.8649 43.5793 12.4665 45.1376 10.3792 45.1376C8.29176 45.1376 6.89151 43.5793 6.89151 41.2778C6.89151 38.9763 8.29776 37.418 10.3792 37.418ZM10.3792 38.6726C9.05481 38.6726 8.24182 39.6715 8.24182 41.2698C8.24182 42.868 9.05481 43.8669 10.3792 43.8669C11.7035 43.8669 12.5145 42.868 12.5145 41.2698C12.5145 39.6715 11.7015 38.6726 10.3792 38.6726Z" fill="#6B6B6B"/>
<path d="M15.0845 37.626H16.3529V38.2253H16.3809C16.6705 37.7718 17.2358 37.4961 17.911 37.4961C18.1855 37.4992 18.4585 37.5361 18.724 37.606L18.4623 38.9565C18.2161 38.8807 17.9607 38.839 17.7032 38.8327C16.8622 38.8327 16.4348 39.412 16.4348 40.6786V44.9321H15.0845V37.626Z" fill="#6B6B6B"/>
<path d="M19.5709 37.6263H20.8674V38.1997H20.8933C21.1231 37.9466 21.4044 37.7456 21.7182 37.6102C22.0321 37.4748 22.3713 37.408 22.713 37.4145C23.077 37.4081 23.4374 37.4872 23.7652 37.6454C24.093 37.8037 24.3793 38.0366 24.6007 38.3255H24.6206C24.8702 38.041 25.1773 37.8127 25.5217 37.6557C25.866 37.4986 26.2398 37.4164 26.6182 37.4145C28.1063 37.4145 29.2149 38.4495 29.2149 39.9099V44.9324H27.8906V40.1376C27.8906 39.2566 27.3253 38.6771 26.4584 38.6771C25.5915 38.6771 25.0241 39.2985 25.0241 40.2215V44.9364H23.7617V40.1416C23.7617 39.2606 23.1825 38.6811 22.3415 38.6811C21.4586 38.6811 20.8933 39.3024 20.8933 40.2255V44.9404H19.5709V37.6263Z" fill="#6B6B6B"/>
<path d="M33.8139 37.418C35.7974 37.418 37.1218 38.9203 37.1218 41.112V41.6774H31.7844C31.7771 42.2713 31.9825 42.8481 32.3637 43.3036C32.5421 43.5112 32.7649 43.676 33.0155 43.786C33.2662 43.8959 33.5383 43.9483 33.8119 43.9389C34.7347 43.9389 35.2861 43.5793 35.8933 42.6024L36.94 43.3036C36.2928 44.5183 35.2182 45.1376 33.8259 45.1376C31.7984 45.1376 30.4301 43.5793 30.4301 41.2778C30.4301 38.9763 31.8164 37.418 33.8139 37.418ZM35.7834 40.6445C35.7295 39.4457 34.9705 38.6167 33.8139 38.6167C33.2827 38.6286 32.777 38.847 32.4041 39.2255C32.0312 39.604 31.8204 40.113 31.8164 40.6445H35.7834Z" fill="#6B6B6B"/>
<path d="M38.3411 37.626H39.6054V38.2253H39.6335C39.9231 37.7718 40.4884 37.4961 41.1635 37.4961C41.438 37.4992 41.7111 37.5361 41.9766 37.606L41.7148 38.9565C41.4693 38.8809 41.2146 38.8392 40.9578 38.8327C40.1169 38.8327 39.6895 39.412 39.6895 40.6786V44.9321H38.3371L38.3411 37.626Z" fill="#6B6B6B"/>
<path d="M42.8257 34.8672H44.1761V44.9304H42.8257V34.8672Z" fill="#6B6B6B"/>
<path d="M47.7803 44.3806L44.9698 37.626H46.3881L48.4555 42.8203H48.4835L50.5789 37.626H51.9931L47.6506 48.0327H46.2522L47.7803 44.3806Z" fill="#6B6B6B"/>
<path d="M55.4931 35.2812H56.9133V39.9542H56.9393L60.7586 35.2812H62.4545L58.9249 39.5267L62.812 44.9308H61.0881L58.0439 40.5955H58.016L56.9133 41.9461V44.9308H55.4931V35.2812Z" fill="#6B6B6B"/>
<path d="M66.1258 37.418C68.1113 37.418 69.4337 38.9203 69.4337 41.112V41.6774H64.1003C64.092 42.2714 64.2976 42.8486 64.6796 43.3036C64.8574 43.5114 65.0797 43.6763 65.3301 43.7863C65.5805 43.8963 65.8524 43.9485 66.1258 43.9389C67.0486 43.9389 67.6 43.5793 68.2072 42.6024L69.2539 43.3036C68.6067 44.5183 67.5321 45.1376 66.1398 45.1376C64.1143 45.1376 62.7439 43.5793 62.7439 41.2778C62.7439 38.9763 64.1282 37.418 66.1258 37.418ZM68.0973 40.6445C68.0414 39.4457 67.2843 38.6167 66.1258 38.6167C65.5946 38.6286 65.0889 38.847 64.716 39.2255C64.3431 39.604 64.1323 40.113 64.1282 40.6445H68.0973Z" fill="#6B6B6B"/>
<path d="M73.7186 37.418C75.7041 37.418 77.0265 38.9203 77.0265 41.112V41.6774H71.6931C71.6857 42.2713 71.8911 42.8481 72.2723 43.3036C72.4504 43.5112 72.6727 43.6759 72.9231 43.7859C73.1734 43.8959 73.4453 43.9481 73.7186 43.9389C74.6433 43.9389 75.1947 43.5793 75.8 42.6024L76.8487 43.3036C76.1995 44.5183 75.1248 45.1376 73.7325 45.1376C71.707 45.1376 70.3367 43.5793 70.3367 41.2778C70.3367 38.9763 71.721 37.418 73.7186 37.418ZM75.6901 40.6445C75.6342 39.4457 74.8772 38.6167 73.7186 38.6167C73.1874 38.6286 72.6816 38.847 72.3088 39.2255C71.9359 39.604 71.725 40.113 71.721 40.6445H75.6901Z" fill="#6B6B6B"/>
<path d="M78.2476 37.6261H79.5702V38.3013H79.5981C79.8645 38.0173 80.1872 37.7921 80.5456 37.64C80.904 37.4879 81.2903 37.4124 81.6795 37.4183C83.5811 37.4183 84.9595 39.0165 84.9595 41.2781C84.9595 43.5396 83.5811 45.1379 81.6935 45.1379C81.3076 45.1436 80.9247 45.0693 80.5689 44.9197C80.2131 44.7702 79.892 44.5486 79.6261 44.2688H79.5981V48.0327H78.2476V37.6261ZM81.5697 38.6729C81.3115 38.6713 81.0555 38.7208 80.8165 38.8185C80.5776 38.9162 80.3602 39.06 80.177 39.2419C79.9937 39.4239 79.8483 39.6403 79.749 39.8786C79.6496 40.1169 79.5983 40.3726 79.5981 40.6308V41.9134C79.5946 42.1697 79.642 42.4241 79.7372 42.6621C79.8324 42.9 79.9739 43.1168 80.1532 43.2998C80.3325 43.4829 80.5464 43.6287 80.7822 43.7288C81.0181 43.8289 81.2714 43.8815 81.5277 43.8832C82.7961 43.8832 83.6092 42.8844 83.6092 41.2861C83.6092 39.6878 82.8241 38.6729 81.5697 38.6729Z" fill="#6B6B6B"/>
<path d="M87.2887 36.5998H84.3484V35.2812H91.6394V36.5998H88.7169V44.9308H87.2968L87.2887 36.5998Z" fill="#6B6B6B"/>
<path d="M91.4291 37.626H92.6976V38.2253H92.7254C93.0152 37.7718 93.5784 37.4961 94.2556 37.4961C94.53 37.4992 94.8032 37.5361 95.0686 37.606L94.8069 38.9565C94.5608 38.8807 94.3053 38.839 94.0479 38.8327C93.2069 38.8327 92.7794 39.412 92.7794 40.6786V44.9321H91.4291V37.626Z" fill="#6B6B6B"/>
<path d="M95.8556 37.626H97.2059V42.1331C97.2059 43.3038 97.7432 43.8832 98.8459 43.8832C99.8446 43.8832 100.514 43.1939 100.514 42.1331V37.626H101.864V44.932H100.57V44.2827H100.528C100.086 44.8202 99.2873 45.1379 98.4464 45.1379C96.8064 45.1379 95.8497 44.139 95.8497 42.3809L95.8556 37.626Z" fill="#6B6B6B"/>
<path d="M106.521 37.4172C107.299 37.3964 108.056 37.6559 108.658 38.1484C109.252 38.6344 109.638 39.3302 109.734 40.0923L108.437 40.354C108.257 39.2932 107.555 38.6718 106.521 38.6718C105.253 38.6718 104.44 39.6707 104.44 41.269C104.44 42.8673 105.253 43.8662 106.521 43.8662C107.555 43.8662 108.229 43.2668 108.437 42.184L109.734 42.4477C109.638 43.2133 109.253 43.9129 108.658 44.4036C108.054 44.8919 107.296 45.1465 106.521 45.1209C104.497 45.1209 103.09 43.5505 103.09 41.261C103.09 38.9715 104.497 37.4172 106.521 37.4172Z" fill="#6B6B6B"/>
<path d="M110.91 34.8672H112.26V40.7109H112.288L115.119 37.6242H116.939L114.249 40.4771L117.104 44.9304H115.518L113.341 41.4142H113.32L112.26 42.5728V44.9304H110.91V34.8672Z" fill="#6B6B6B"/>
<path d="M117.896 34.9355H119.371V36.356H117.896V34.9355ZM117.964 37.6247H119.31V44.9307H117.96L117.964 37.6247Z" fill="#6B6B6B"/>
<path d="M120.832 37.6258H122.129V38.273H122.156C122.419 38.001 122.733 37.785 123.081 37.6381C123.429 37.4911 123.804 37.4163 124.182 37.418C125.849 37.418 126.938 38.5068 126.938 40.215V44.9299H125.588V40.4228C125.588 39.3339 124.967 38.6726 123.92 38.6726C122.873 38.6726 122.184 39.3759 122.184 40.4228V44.9318H120.832V37.6258Z" fill="#6B6B6B"/>
<path d="M82.6666 0.923828H77.0875V5.90245H82.6666V0.923828Z" fill="#6B6B6B"/>
<path d="M69.7988 25.0218V13.0108H74.7128V8.14403H69.7988V0.923828H64.2057V8.14002H61.0298V13.0068H64.2077V30.0064H74.7128V25.0118L69.7988 25.0218Z" fill="#6B6B6B"/>
<path d="M21.8141 8.13672H15.1323L5.14469 25.0204H0.254761V30.0151H8.06308L16.235 16.188V30.0051H22.8268L30.9607 16.1481V30.0051H36.5538V8.13672H29.842L21.8141 21.6981V8.13672Z" fill="#6B6B6B"/>
<path d="M82.6706 8.13672H77.0775V30.0051H82.6706V8.13872V8.13672Z" fill="#6B6B6B"/>
<path d="M82.6665 0.923828H77.0875V5.90644H82.6665V0.923828Z" fill="#6B6B6B"/>
<path d="M49.6816 7.88281H49.6396C43.6251 7.88281 38.7951 12.8774 38.7951 19.0708C38.7951 25.264 43.6251 30.2586 49.6396 30.2586H49.6816C55.6981 30.2586 60.4842 25.2161 60.4842 19.0708C60.4842 12.9253 55.6981 7.88281 49.6816 7.88281ZM49.6816 24.6647H49.6396C46.6753 24.6647 44.3881 22.1654 44.3881 19.0708C44.3881 15.9761 46.6753 13.4768 49.6396 13.4768H49.6816C52.562 13.4768 54.8971 16.0181 54.8971 19.0708C54.8931 22.1613 52.606 24.6607 49.6816 24.6607V24.6647Z" fill="#6B6B6B"/>
<path d="M117.232 25.2915C119.48 25.2915 120.88 23.979 121.261 22.8322H126.855C126.643 24.6563 124.226 30.2562 117.228 30.2562C110.911 30.2562 106.243 25.5054 106.243 19.0563C106.243 12.7371 111.037 7.8584 117.057 7.8584C122.782 7.8584 127.244 12.863 127.244 18.9724C127.244 19.6077 127.202 20.2031 127.16 20.6266H111.979C112.357 23.2997 113.969 25.2915 117.232 25.2915ZM112.151 16.6389H121.74C121.139 14.4413 119.662 12.8211 117.075 12.8211C114.364 12.8211 112.786 14.3914 112.157 16.6389H112.151Z" fill="#6B6B6B"/>
<path d="M101.33 8.14277L96.0005 22.4472L90.6711 8.14277H84.6904L93.15 30.0072H98.779L107.288 8.15477H101.33C101.33 8.15477 101.33 8.14078 101.33 8.14277Z" fill="#6B6B6B"/>
</g>
<defs>
<clipPath id="clip0_1_427">
<rect width="126.99" height="47.1094" fill="white" transform="translate(0.254761 0.923828)"/>
</clipPath>
</defs>
</svg>
