<svg width="94" height="29" viewBox="0 0 94 29" fill="none" xmlns="http://www.w3.org/2000/svg">
<g clip-path="url(#clip0_1_651)">
<path d="M3.35586 9.38915C3.17572 9.5678 2.98627 9.73657 2.78854 9.8957V7.21393H0.397247V28.0876H2.79535V20.4336C6.24691 24.4059 10.2256 24.007 12.7995 22.3993C15.954 20.4472 17.3053 16.2389 16.1773 12.3546C14.428 6.63315 7.26027 4.66732 3.35586 9.38915ZM7.7402 21.2309C4.58562 21.2309 2.65352 18.5287 2.62661 15.1513C2.59925 11.7738 5.22053 8.98347 8.36166 8.95656C11.5023 8.92979 13.9882 11.5844 13.9882 15.1375C13.9589 18.525 11.1887 21.247 7.80128 21.2177H7.80084H7.73325L7.7402 21.2309Z" fill="#7D888E"/>
<path d="M88.6459 2.35059V7.07921H93.6786V9.24084H88.7741C88.7402 9.76083 88.6864 10.1391 88.6864 10.5919C88.6864 13.0778 88.7809 15.5702 88.6864 18.0223C88.5376 20.9475 90.0376 21.569 92.7392 21.0284C92.9682 20.9658 93.1938 20.8913 93.4147 20.8057C93.9755 22.6362 93.6242 23.1902 91.8 23.4197C87.9972 23.872 86.1731 22.2644 86.1667 18.4212V9.34215L84.0052 9.24084V7.21409L86.153 7.07921V2.35059H88.6459Z" fill="#7D888E"/>
<path d="M39.0431 23.1288H36.6248V7.21399H38.996V10.8889C40.6642 8.36935 42.515 6.76159 45.474 6.88315V9.36231C40.6778 10.2609 39.0366 12.294 39.0366 17.2657C39.0431 19.1636 39.0431 21.0957 39.0431 23.1288Z" fill="#7D888E"/>
<path d="M60.3148 0.587273V9.84176C56.0999 6.06557 52.2896 5.78857 49.0608 8.78091C45.8321 11.7737 45.548 17.1577 48.2777 20.6635C49.3697 22.0779 50.9449 23.0396 52.7019 23.3657C55.7617 23.9807 58.16 22.7848 60.3015 20.1299V23.0819H62.6184V0.580322H60.3148V0.587273ZM54.5122 21.3323C51.3577 21.2579 48.9126 18.4681 48.9802 15.0024C49.0478 11.5371 51.4052 8.92304 54.6071 8.96356C57.8092 9.00394 60.3824 11.7533 60.3353 15.2659C60.3083 18.6097 57.6264 21.3998 54.519 21.3323H54.5122Z" fill="#7D888E"/>
<path d="M32.4433 11.9427C32.3015 9.50407 30.802 7.88951 28.4647 7.2614C25.5887 6.5314 22.5449 6.88486 19.913 8.25436L20.5883 10.2333C23.4187 9.17974 24.918 8.97032 26.7691 9.20015C28.8498 9.46355 30.6939 11.4493 29.9846 13.8069L29.2552 13.6518C26.553 13.1452 23.8845 12.8477 21.3109 14.0367C18.8822 15.0662 17.7486 17.8695 18.7781 20.298C19.1402 21.1523 19.7432 21.8824 20.5137 22.3993C21.8584 23.2962 23.4719 23.6996 25.0804 23.5411C27.0199 23.3927 28.8319 22.517 30.1533 21.089L30.2683 23.1157H32.5177C32.5177 22.7578 32.6053 22.4401 32.5985 22.1831C32.5785 18.7586 32.646 15.3202 32.4433 11.9427ZM27.8296 20.8862C25.8507 21.8388 23.8309 21.9803 21.9732 20.6029C20.7474 19.6025 20.5649 17.7983 21.5647 16.5726C21.7475 16.3494 21.9622 16.1549 22.2025 15.9956C24.4621 14.9518 27.0307 14.7904 29.4034 15.5429C29.8062 15.7275 30.0985 16.0903 30.1939 16.5226C30.5379 18.3464 29.553 20.1614 27.8363 20.8662L27.8296 20.8862Z" fill="#7D888E"/>
<path d="M74.3452 6.72751C69.6827 6.64987 65.8394 10.3671 65.7622 15.0296C65.6844 19.6923 69.4014 23.5355 74.0644 23.6132C78.7234 23.6905 82.5648 19.9791 82.6474 15.32V15.2659C82.734 10.648 79.0607 6.83429 74.4425 6.74792C74.4393 6.74792 74.4362 6.74779 74.4332 6.74779L74.3452 6.72751ZM74.3452 21.3791C71.0556 21.3791 68.4479 18.6029 68.4617 15.0768C68.475 11.5504 70.9812 8.92287 74.3185 8.94964C77.6554 8.977 80.1749 11.7061 80.1749 15.1578C80.1749 18.6096 77.6147 21.3661 74.3386 21.3791H74.3452Z" fill="#7D888E"/>
</g>
<defs>
<clipPath id="clip0_1_651">
<rect width="93.4693" height="27.6562" fill="white" transform="translate(0.265381 0.578125)"/>
</clipPath>
</defs>
</svg>
