<svg width="20" height="21" viewBox="0 0 20 21" fill="none" xmlns="http://www.w3.org/2000/svg">
  <path d="M17.9942 6.08071C17.8993 5.72855 17.7138 5.40738 17.4562 5.14919C17.1986 4.89099 16.8778 4.70476 16.5259 4.60905C15.2209 4.25071 10 4.24488 10 4.24488C10 4.24488 4.78003 4.23905 3.4742 4.58155C3.12247 4.68167 2.80238 4.87053 2.54467 5.12999C2.28696 5.38946 2.10027 5.71081 2.00253 6.06321C1.65836 7.36821 1.65503 10.0749 1.65503 10.0749C1.65503 10.0749 1.6517 12.7949 1.99336 14.0865C2.18503 14.8007 2.74753 15.3649 3.46253 15.5574C4.78086 15.9157 9.98753 15.9215 9.98753 15.9215C9.98753 15.9215 15.2084 15.9274 16.5134 15.5857C16.8654 15.4902 17.1865 15.3044 17.4447 15.0467C17.703 14.789 17.8895 14.4684 17.9859 14.1165C18.3309 12.8124 18.3334 10.1065 18.3334 10.1065C18.3334 10.1065 18.35 7.38571 17.9942 6.08071ZM8.33003 12.5824L8.3342 7.58238L12.6734 10.0865L8.33003 12.5824Z" fill="white" fill-opacity="0.65"/>
</svg>